<svg width="48" height="48" viewBox="0 0 48 48" fill="none" xmlns="http://www.w3.org/2000/svg">
<path d="M38 42H10C7.791 42 6 40.209 6 38V10C6 7.791 7.791 6 10 6H38C40.209 6 42 7.791 42 10V38C42 40.209 40.209 42 38 42Z" fill="#C62828"/>
<path d="M37 23.076V23.924C36.992 23.97 36.982 24.015 36.976 24.061C36.932 24.43 36.903 24.801 36.842 25.167C36.642 26.357 36.21 27.463 35.568 28.486C34.593 30.039 33.275 31.223 31.619 32.032C30.663 32.501 29.632 32.802 28.573 32.923C28.338 32.95 28.102 32.974 27.867 33H18.733C18.687 32.992 18.641 32.978 18.595 32.975C17.674 32.918 16.788 32.71 15.943 32.343C14.104 31.546 12.733 30.254 11.836 28.475C11.439 27.691 11.183 26.844 11.077 25.973C11.051 25.761 11.026 25.55 11 25.338V24.515C11.009 24.469 11.022 24.424 11.025 24.378C11.073 23.587 11.236 22.82 11.525 22.082C12.301 20.097 13.653 18.624 15.575 17.671C16.572 17.176 17.635 16.916 18.746 16.859C19.29 16.831 19.834 16.861 20.375 16.933C20.424 16.94 20.495 16.918 20.529 16.883C21.307 16.096 22.193 15.456 23.191 14.972C24.16 14.502 25.179 14.199 26.252 14.078C26.505 14.049 26.758 14.026 27.011 14H27.79C27.841 14.008 27.892 14.017 27.943 14.023C28.329 14.068 28.717 14.096 29.099 14.159C30.291 14.357 31.401 14.781 32.428 15.411C34.003 16.377 35.203 17.685 36.023 19.331C36.497 20.279 36.802 21.301 36.923 22.352C36.95 22.593 36.974 22.835 37 23.076ZM22.462 17.589C22.478 17.609 22.481 17.619 22.488 17.622C23.023 17.883 23.534 18.189 24.016 18.537C24.046 18.559 24.122 18.55 24.159 18.527C25.483 17.696 26.919 17.409 28.461 17.68C29.972 17.945 31.202 18.693 32.141 19.888C33.205 21.24 33.61 22.769 33.317 24.47C33.12 25.61 32.659 26.633 31.876 27.49C30.447 29.052 28.656 29.698 26.549 29.425C25.252 29.257 24.132 28.702 23.205 27.774C22.015 26.583 20.818 25.401 19.625 24.213C19.466 24.055 19.289 23.928 19.06 23.9C18.66 23.851 18.297 24.049 18.124 24.405C17.97 24.723 17.99 25.081 18.324 25.407C19.654 26.701 20.972 28.006 22.301 29.301C22.528 29.524 22.772 29.729 23.03 29.916C24 30.614 25.095 31 26.279 31.156C27.209 31.278 28.132 31.252 29.047 31.048C30.794 30.659 32.24 29.776 33.38 28.413C34.321 27.287 34.89 25.993 35.088 24.54C35.203 23.711 35.179 22.87 35.017 22.049C34.753 20.707 34.18 19.506 33.261 18.484C31.509 16.535 29.305 15.665 26.682 15.859C25.673 15.934 24.719 16.227 23.821 16.693C23.338 16.941 22.882 17.242 22.462 17.589ZM21.821 31.195C21.785 31.162 21.749 31.129 21.713 31.095C21.169 30.586 20.622 30.081 20.085 29.566C19.981 29.466 19.885 29.418 19.738 29.421C19.194 29.434 18.649 29.436 18.113 29.316C15.447 28.719 13.898 25.846 14.881 23.319C15.656 21.326 17.802 20.113 19.918 20.487C20.866 20.655 21.699 21.052 22.382 21.751C23.215 22.603 24.073 23.431 24.916 24.275C25.108 24.467 25.328 24.555 25.593 24.517C25.936 24.468 26.21 24.306 26.334 23.973C26.456 23.645 26.397 23.334 26.146 23.082C25.262 22.195 24.399 21.285 23.479 20.436C21.695 18.788 19.592 18.297 17.265 18.998C14.136 19.94 12.304 23.142 13.019 26.301C13.671 29.179 16.211 31.2 19.184 31.202C20.014 31.203 20.844 31.202 21.674 31.202C21.716 31.202 21.757 31.199 21.821 31.195Z" fill="white"/>
</svg>
