<svg width="36" height="36" viewBox="0 0 36 36" fill="none" xmlns="http://www.w3.org/2000/svg">
<path d="M29.436 7.63275C27.333 6.6675 25.077 5.9565 22.719 5.54925C22.6762 5.54175 22.6335 5.56125 22.611 5.60025C22.3208 6.11625 21.9998 6.789 21.7748 7.3185C19.2383 6.939 16.7145 6.939 14.2305 7.3185C14.0055 6.77775 13.6725 6.11625 13.3807 5.60025C13.3582 5.562 13.3155 5.5425 13.2728 5.54925C10.9155 5.955 8.66025 6.666 6.55575 7.63275C6.53775 7.64025 6.522 7.65375 6.5115 7.671C2.2335 14.0625 1.06125 20.2973 1.6365 26.454C1.63875 26.484 1.656 26.5133 1.67925 26.5313C4.5015 28.6043 7.236 29.8628 9.9195 30.6968C9.96225 30.7095 10.008 30.6945 10.035 30.6585C10.6695 29.7915 11.2358 28.878 11.721 27.9165C11.7495 27.8603 11.7225 27.7935 11.664 27.771C10.7663 27.4305 9.912 27.0158 9.09 26.544C9.02475 26.5058 9.0195 26.4128 9.0795 26.3685C9.25275 26.2388 9.42525 26.1038 9.591 25.968C9.621 25.9433 9.66225 25.938 9.6975 25.9538C15.0983 28.4198 20.9452 28.4198 26.2822 25.9538C26.3175 25.9365 26.3588 25.9418 26.3903 25.9665C26.5553 26.103 26.7285 26.2388 26.9025 26.3685C26.9625 26.4128 26.9588 26.5058 26.8935 26.544C26.0715 27.0248 25.2165 27.4305 24.318 27.7695C24.2595 27.792 24.2332 27.8595 24.2617 27.9165C24.7575 28.8765 25.323 29.79 25.9463 30.657C25.9725 30.6938 26.019 30.7095 26.0618 30.696C28.758 29.862 31.4925 28.6035 34.3147 26.5305C34.3395 26.5125 34.3553 26.4848 34.3575 26.4548C35.0453 19.3365 33.2048 13.1535 29.4788 7.67175C29.4698 7.65375 29.454 7.64025 29.436 7.63275ZM12.5272 22.7048C10.9012 22.7048 9.56175 21.2123 9.56175 19.3785C9.56175 17.5448 10.8757 16.0523 12.5272 16.0523C14.1922 16.0523 15.519 17.5583 15.4927 19.3785C15.4935 21.2115 14.1795 22.7048 12.5272 22.7048ZM23.493 22.7048C21.867 22.7048 20.5275 21.2123 20.5275 19.3785C20.5275 17.5448 21.8415 16.0523 23.493 16.0523C25.158 16.0523 26.4847 17.5583 26.4585 19.3785C26.4585 21.2115 25.158 22.7048 23.493 22.7048Z" fill="#536DFE"/>
</svg>
