<svg width="48" height="48" viewBox="0 0 48 48" fill="none" xmlns="http://www.w3.org/2000/svg">
<path d="M24 6.00096C19.2766 5.95073 14.7273 7.86548 11.3521 11.3244C7.97687 14.7833 6.05181 19.5034 6 24.4473C6.0182 28.3544 7.219 32.1549 9.42992 35.303C11.6408 38.451 14.7481 40.7847 18.3055 41.9687C19.2055 42.14 19.5327 41.5748 19.5327 41.0781C19.5327 40.5814 19.5327 39.4852 19.5327 37.9438C14.5255 39.057 13.4618 35.4774 13.4618 35.4774C13.1285 34.3537 12.4198 33.3931 11.4655 32.7712C9.82909 31.6408 11.5964 31.658 11.5964 31.658C12.162 31.7371 12.7031 31.9493 13.1792 32.2785C13.6553 32.6078 14.054 33.0456 14.3455 33.5591C14.8533 34.4808 15.6865 35.1569 16.6658 35.442C17.6452 35.7271 18.6923 35.5984 19.5818 35.0835C19.6733 34.1455 20.0791 33.2718 20.7273 32.6171C16.7345 32.1547 12.5455 30.5789 12.5455 23.5053C12.5097 21.6601 13.1611 19.8727 14.3618 18.5212C13.815 16.937 13.8796 15.1921 14.5418 13.657C14.5418 13.657 16.0636 13.1603 19.4509 15.541C22.3995 14.7186 25.5024 14.7186 28.4509 15.541C31.8873 13.1603 33.36 13.657 33.36 13.657C34.0223 15.1921 34.0868 16.937 33.54 18.5212C34.7686 19.8479 35.4553 21.6233 35.4545 23.471C35.4545 30.5618 31.2327 32.1204 27.2727 32.5828C27.7063 33.0235 28.0413 33.5592 28.2535 34.1515C28.4657 34.7438 28.5499 35.3779 28.5 36.0084V41.061C28.5 41.061 28.8273 42.14 29.7273 41.9516C33.2745 40.7602 36.3713 38.426 38.5754 35.2824C40.7795 32.1388 41.9781 28.3465 42 24.4473C41.9482 19.5034 40.0231 14.7833 36.6479 11.3244C33.2727 7.86548 28.7234 5.95073 24 6.00096" fill="white"/>
</svg>
