<svg width="48" height="48" viewBox="0 0 48 48" fill="none" xmlns="http://www.w3.org/2000/svg">
<path d="M35.883 7.34101C37.726 7.85001 39 9.50801 39 11.397V36.559C39 38.465 37.699 40.129 35.832 40.624L24.29 43.863L28 36V11L24.852 4.11501L35.883 7.34101Z" fill="url(#paint0_linear_30_210)"/>
<path d="M28 35V38.927C28 42.73 24.176 45.176 20.981 43.418L14.045 38.973C13.243 38.507 12.809 37.511 13.081 36.516C13.334 35.59 14.202 35 15.115 35H28Z" fill="url(#paint1_linear_30_210)"/>
<path d="M21.946 4.526L10.022 11.312C8.772 12.024 8 13.351 8 14.789V33.218C8 34.575 9.459 35.433 10.645 34.772L15.117 32.281C15.662 31.978 16 31.402 16 30.778V17.743C16 16.436 16.78 15.263 17.963 14.794L28 11.308V8.218C28 5.014 24.669 2.983 21.946 4.526Z" fill="url(#paint2_linear_30_210)"/>
<defs>
<linearGradient id="paint0_linear_30_210" x1="31.645" y1="6.83901" x2="31.645" y2="40.615" gradientUnits="userSpaceOnUse">
<stop stop-color="#E68E00"/>
<stop offset="0.036" stop-color="#E38400"/>
<stop offset="0.171" stop-color="#DB6200"/>
<stop offset="0.299" stop-color="#D44A00"/>
<stop offset="0.417" stop-color="#D03B00"/>
<stop offset="0.515" stop-color="#CF3600"/>
<stop offset="0.878" stop-color="#D22900"/>
<stop offset="1" stop-color="#D42400"/>
</linearGradient>
<linearGradient id="paint1_linear_30_210" x1="13.922" y1="34.951" x2="29.051" y2="41.073" gradientUnits="userSpaceOnUse">
<stop stop-color="#F52537"/>
<stop offset="0.293" stop-color="#F32536"/>
<stop offset="0.465" stop-color="#EA2434"/>
<stop offset="0.605" stop-color="#DC2231"/>
<stop offset="0.729" stop-color="#C8202C"/>
<stop offset="0.841" stop-color="#AE1E25"/>
<stop offset="0.944" stop-color="#8F1A1D"/>
<stop offset="1" stop-color="#7A1818"/>
</linearGradient>
<linearGradient id="paint2_linear_30_210" x1="5.382" y1="32.289" x2="25.874" y2="1.78" gradientUnits="userSpaceOnUse">
<stop stop-color="#D96AB1"/>
<stop offset="0.137" stop-color="#D9538B"/>
<stop offset="0.495" stop-color="#D91A2A"/>
<stop offset="0.575" stop-color="#D31A29"/>
<stop offset="0.68" stop-color="#C21926"/>
<stop offset="0.8" stop-color="#A71821"/>
<stop offset="0.929" stop-color="#811619"/>
<stop offset="1" stop-color="#691515"/>
</linearGradient>
</defs>
</svg>
