<svg width="48" height="48" viewBox="0 0 48 48" fill="none" xmlns="http://www.w3.org/2000/svg">
<path d="M6 10C6 7.791 7.791 6 10 6H38C40.209 6 42 7.791 42 10V38C42 40.209 40.209 42 38 42H10C7.791 42 6 40.209 6 38V10Z" fill="#03A9F4"/>
<path d="M20.016 19.174H18.014V23.608H19.987C20.534 23.608 20.957 23.429 21.257 23.071C21.557 22.713 21.706 22.192 21.706 21.508C21.706 20.798 21.553 20.234 21.247 19.814C20.941 19.394 20.53 19.181 20.016 19.174Z" fill="#020F16"/>
<path d="M9 9V39H39V9H9ZM23.365 24.789C22.539 25.597 21.393 26 19.928 26H18.014V31H15.143V16.781H19.987C21.393 16.781 22.515 17.218 23.351 18.09C24.187 18.962 24.606 20.095 24.606 21.488C24.606 22.881 24.192 23.981 23.365 24.789ZM32.682 30.336C31.973 30.909 31.041 31.195 29.889 31.195C29.114 31.195 28.43 31.044 27.838 30.741C27.246 30.438 26.781 30.016 26.446 29.476C26.111 28.936 25.943 28.353 25.943 27.728H28.57C28.584 28.209 28.695 28.571 28.907 28.812C29.119 29.053 29.465 29.173 29.947 29.173C30.689 29.173 31.06 28.838 31.06 28.167C31.06 27.933 30.948 27.716 30.723 27.518C30.498 27.32 30 27.052 29.225 26.713C28.086 26.251 27.303 25.773 26.876 25.277C26.449 24.781 26.236 24.167 26.236 23.431C26.236 22.506 26.57 21.743 27.237 21.141C27.904 20.539 28.789 20.238 29.888 20.238C31.046 20.238 31.974 20.538 32.671 21.136C33.368 21.734 33.716 22.539 33.716 23.548H30.952C30.952 22.689 30.595 22.259 29.878 22.259C29.585 22.259 29.345 22.35 29.155 22.532C28.965 22.714 28.872 22.969 28.872 23.294C28.872 23.528 28.976 23.735 29.185 23.914C29.394 24.093 29.884 24.349 30.66 24.681C31.787 25.098 32.582 25.562 33.048 26.073C33.514 26.584 33.746 27.247 33.746 28.06C33.746 29.005 33.391 29.763 32.682 30.336Z" fill="#020F16"/>
</svg>
