<svg width="132" height="135" viewBox="0 0 132 135" fill="none" xmlns="http://www.w3.org/2000/svg">
<path d="M74.0036 134.451C76.765 134.451 79.0036 132.212 79.0036 129.451L79.0036 84.4507C79.0036 81.6893 76.765 79.4507 74.0036 79.4507C71.2421 79.4507 69.0036 81.6893 69.0036 84.4507L69.0036 124.451L29.0036 124.451C26.2422 124.451 24.0036 126.689 24.0036 129.451C24.0036 132.212 26.2422 134.451 29.0036 134.451L74.0036 134.451ZM0.464466 62.9827L70.468 132.986L77.5391 125.915L7.53553 55.9116L0.464466 62.9827Z" fill="#888888"/>
<path d="M58.4472 -3.92185e-06C55.6858 1.70572e-06 53.4472 2.23858 53.4472 5L53.4472 50C53.4472 52.7614 55.6858 55 58.4472 55C61.2087 55 63.4472 52.7614 63.4472 50L63.4472 10L103.447 9.99999C106.209 9.99999 108.447 7.76142 108.447 4.99999C108.447 2.23857 106.209 -5.25044e-06 103.447 -5.01767e-06L58.4472 -3.92185e-06ZM131.986 71.468L61.9828 1.46446L54.9117 8.53553L124.915 78.5391L131.986 71.468Z" fill="#888888"/>
</svg>
