<svg width="48" height="48" viewBox="0 0 48 48" fill="none" xmlns="http://www.w3.org/2000/svg">
<g clip-path="url(#clip0_30_241)">
<circle cx="24" cy="24" r="15.8333" fill="white"/>
<path d="M24 5.96368C14.0384 5.96368 5.96336 14.0387 5.96336 24C5.96336 33.9608 14.0384 42.0364 24 42.0364C33.9613 42.0364 42.0366 33.9608 42.0366 24C42.0366 14.0387 33.9616 5.96368 24 5.96368V5.96368ZM28.0467 12.1749C28.7123 11.0227 30.1842 10.6282 31.3361 11.2926C32.4879 11.9582 32.8822 13.4301 32.2166 14.582C31.5522 15.7338 30.08 16.1281 28.9281 15.4628C27.7771 14.7981 27.3826 13.3259 28.0467 12.1749V12.1749ZM24 13.539C24.9684 13.539 25.905 13.6735 26.7948 13.9193C26.9518 14.8869 27.526 15.7784 28.4418 16.3068C29.3559 16.8338 30.4137 16.8866 31.3289 16.541C33.1096 18.292 34.2683 20.6732 34.4372 23.3258L31.0059 23.3763C30.6892 19.7832 27.6744 16.9659 24 16.9659C22.9416 16.9659 21.9373 17.201 21.0372 17.6199L19.3637 14.6217C20.7614 13.93 22.3354 13.539 24 13.539V13.539ZM11.7358 26.4083C10.4052 26.4083 9.32725 25.33 9.32725 24C9.32725 22.6697 10.4049 21.5915 11.7358 21.5915C13.0655 21.5915 14.1437 22.6694 14.1437 24C14.1437 25.3297 13.0655 26.4083 11.7358 26.4083ZM13.8706 26.6226C14.6309 26.0022 15.1175 25.0578 15.1175 24C15.1175 22.9417 14.6309 21.997 13.8706 21.3768C14.522 18.8567 16.0898 16.7046 18.1964 15.296L19.9572 18.2451C18.1486 19.5178 16.9664 21.6203 16.9664 24C16.9664 26.3798 18.1483 28.4822 19.9572 29.7544L18.1964 32.7044C16.0889 31.296 14.5211 29.1434 13.8706 26.6226V26.6226ZM31.3361 36.7057C30.1845 37.371 28.7123 36.9764 28.0476 35.8243C27.3823 34.6733 27.7771 33.2014 28.929 32.5361C30.08 31.8714 31.5528 32.2665 32.2175 33.4175C32.8825 34.5694 32.4877 36.0416 31.3361 36.7057V36.7057ZM31.3289 31.459C30.4137 31.1129 29.3562 31.1648 28.4418 31.693C27.5263 32.2223 26.9518 33.1126 26.7951 34.0804C25.905 34.3268 24.9684 34.4616 24 34.4616C22.3354 34.4616 20.7614 34.0703 19.364 33.3783L21.0372 30.3799C21.9373 30.7988 22.9416 31.0342 24 31.0342C27.6747 31.0342 30.6892 28.2174 31.0051 24.6241L34.4372 24.6742C34.2683 27.3268 33.1096 29.708 31.3289 31.459V31.459Z" fill="#DD4814"/>
</g>
<defs>
<clipPath id="clip0_30_241">
<rect width="38" height="38" fill="white" transform="translate(5 5)"/>
</clipPath>
</defs>
</svg>
