<svg width="28" height="28" viewBox="0 0 28 28" fill="none" xmlns="http://www.w3.org/2000/svg">
<path d="M9.92832 23.3334H9.83498C7.95474 23.3169 6.10168 22.8825 4.40998 22.0617C4.0988 21.9155 3.84259 21.6736 3.67884 21.3713C3.51509 21.069 3.45242 20.7222 3.49998 20.3817C3.55172 20.0389 3.71044 19.7212 3.95348 19.474C4.19651 19.2268 4.51145 19.0626 4.85332 19.005C5.9017 18.8652 6.91025 18.5118 7.81665 17.9667C6.24301 16.7364 5.03153 15.1032 4.31061 13.2403C3.58969 11.3774 3.38618 9.3542 3.72165 7.38504C3.76714 7.07314 3.90128 6.78087 4.10811 6.54301C4.31494 6.30516 4.58575 6.13173 4.88832 6.04338C5.18268 5.95093 5.49772 5.94698 5.79431 6.03202C6.09091 6.11705 6.35599 6.28733 6.55665 6.52171C7.23799 7.41513 8.09419 8.16037 9.07304 8.71197C10.0519 9.26357 11.1328 9.60998 12.25 9.73004C12.3033 8.35554 12.894 7.05688 13.895 6.11338C14.3948 5.63478 14.9848 5.26044 15.6308 5.01217C16.2767 4.7639 16.9656 4.64667 17.6573 4.6673C18.3489 4.68793 19.0296 4.84601 19.6596 5.13234C20.2896 5.41867 20.8563 5.82751 21.3267 6.33504C21.4492 6.44339 21.6015 6.51244 21.7637 6.53324C21.926 6.55404 22.0907 6.52564 22.2367 6.45171C22.5148 6.32052 22.8246 6.27113 23.1297 6.30931C23.4349 6.3475 23.7229 6.47168 23.9602 6.66736C24.1975 6.86305 24.3742 7.12218 24.4698 7.41451C24.5654 7.70684 24.5758 8.02032 24.5 8.31838C24.2309 9.42684 23.721 10.4625 23.0066 11.3517C22.8492 14.6706 21.386 17.7926 18.9361 20.0371C16.4862 22.2816 13.2483 23.4664 9.92832 23.3334V23.3334ZM9.92832 21H10.0217C11.3781 21.0467 12.7303 20.8236 13.9999 20.3438C15.2695 19.8639 16.4312 19.1368 17.4177 18.2046C18.4041 17.2724 19.1957 16.1536 19.7466 14.9132C20.2974 13.6727 20.5966 12.3353 20.6267 10.9784C20.6459 10.6065 20.7993 10.2542 21.0583 9.98671C21.3429 9.6265 21.5855 9.23509 21.7817 8.82004C21.3614 8.82084 20.9456 8.73293 20.5616 8.56204C20.1777 8.39116 19.8341 8.14116 19.5533 7.82838C19.2833 7.56069 18.9627 7.34955 18.6101 7.20732C18.2575 7.06509 17.8801 6.99462 17.5 7.00004C17.116 6.99012 16.7339 7.05612 16.3755 7.19426C16.0172 7.33241 15.6896 7.53997 15.4117 7.80504C15.0367 8.16088 14.7617 8.60896 14.6143 9.10444C14.4669 9.59992 14.4522 10.1254 14.5717 10.6284L14.875 11.9584L13.51 12.0517C12.1113 12.1658 10.7045 11.9744 9.387 11.491C8.06954 11.0075 6.87292 10.2434 5.87998 9.25171C5.8374 10.7875 6.22159 12.305 6.98983 13.6355C7.75807 14.9661 8.88027 16.0575 10.2317 16.7884L11.34 17.4184L10.605 18.4684C9.81012 19.5108 8.72103 20.2911 7.47832 20.7084C8.27552 20.9082 9.09482 21.0062 9.91665 21H9.92832Z" fill="white"/>
</svg>
