<svg width="28" height="28" viewBox="0 0 28 28" fill="none" xmlns="http://www.w3.org/2000/svg">
<path d="M17.675 9.80015C16.7808 9.79708 15.8948 9.97036 15.0676 10.3101C14.2405 10.6498 13.4884 11.1493 12.8545 11.7799C12.2206 12.4106 11.7173 13.1601 11.3733 13.9855C11.0293 14.8108 10.8515 15.696 10.85 16.5902V23.4502C10.85 23.7286 10.9606 23.9957 11.1575 24.1926C11.3544 24.3895 11.6215 24.5001 11.9 24.5001H14.35C14.6285 24.5001 14.8955 24.3895 15.0924 24.1926C15.2893 23.9957 15.4 23.7286 15.4 23.4502V16.5902C15.3997 16.2721 15.4665 15.9576 15.596 15.6671C15.7255 15.3766 15.9147 15.1167 16.1514 14.9042C16.388 14.6918 16.6668 14.5316 16.9696 14.4341C17.2723 14.3366 17.5921 14.3041 17.9083 14.3385C18.4753 14.4099 18.9964 14.6869 19.3727 15.117C19.7491 15.5471 19.9545 16.1003 19.95 16.6718V23.4502C19.95 23.7286 20.0606 23.9957 20.2575 24.1926C20.4544 24.3895 20.7215 24.5001 21 24.5001H23.45C23.7285 24.5001 23.9955 24.3895 24.1924 24.1926C24.3894 23.9957 24.5 23.7286 24.5 23.4502V16.5902C24.4984 15.696 24.3206 14.8108 23.9767 13.9855C23.6327 13.1601 23.1294 12.4106 22.4954 11.7799C21.8615 11.1493 21.1095 10.6498 20.2823 10.3101C19.4552 9.97036 18.5692 9.79708 17.675 9.80015Z" fill="white"/>
<path d="M7.7 10.8501H4.55C3.9701 10.8501 3.5 11.3202 3.5 11.9001V23.4501C3.5 24.03 3.9701 24.5001 4.55 24.5001H7.7C8.2799 24.5001 8.75 24.03 8.75 23.4501V11.9001C8.75 11.3202 8.2799 10.8501 7.7 10.8501Z" fill="white"/>
<path d="M6.125 8.75003C7.57475 8.75003 8.75 7.57478 8.75 6.12503C8.75 4.67528 7.57475 3.50003 6.125 3.50003C4.67525 3.50003 3.5 4.67528 3.5 6.12503C3.5 7.57478 4.67525 8.75003 6.125 8.75003Z" fill="white"/>
</svg>
